<?xml version="1.0" encoding="UTF-8"?>
<svg width="512" height="512" viewBox="0 0 512 512" xmlns="http://www.w3.org/2000/svg">
  <!-- Head and ears -->
  <path d="
    M 256 140
    L 200 60
    L 180 140
    L 120 80
    L 140 180
    Q 140 220 180 260
    Q 220 300 256 300
    Q 292 300 332 260
    Q 372 220 372 180
    L 392 80
    L 332 140
    L 312 60
    L 256 140
    Z" 
    fill="#000000"/>
  
  <!-- Body -->
  <path d="
    M 180 260
    Q 160 280 160 320
    Q 160 360 200 400
    Q 240 440 256 440
    Q 272 440 312 400
    Q 352 360 352 320
    Q 352 280 332 260
    Q 292 300 256 300
    Q 220 300 180 260
    Z"
    fill="#000000"/>
</svg> 